<?xml version="1.0"?>


<svg width="184.98335mm" height="34.23481mm" viewBox="0 0 184.98335 34.23481" version="1.1" id="svg1" xmlns="http://www.w3.org/2000/svg" xmlns:svg="http://www.w3.org/2000/svg">
  <defs id="defs1"></defs>
  <g id="layer1" transform="translate(-12.7,-131.49792)">
    <g transform="matrix(0.26458333,0,0,0.26458333,-36.471013,12.275112)" id="g5" style="clip-rule:evenodd;fill-rule:evenodd;stroke-linejoin:round;stroke-miterlimit:2">
                <g transform="matrix(0.39464,0,0,0.39464,349.555,404.742)" id="g1">
                    <path d="m 379.877,393.477 c 27.118,24.546 63.074,39.505 102.496,39.505 7.073,0 14.036,-0.482 20.856,-1.414 0.851,-0.116 1.713,0.118 2.388,0.649 l 5.143,4.049 c 0.986,0.776 1.421,2.062 1.109,3.277 -0.312,1.215 -1.312,2.132 -2.55,2.337 -8.768,1.453 -17.77,2.209 -26.946,2.209 -86.513,0 -157.462,-67.16 -163.517,-152.141 -0.089,-1.251 0.568,-2.437 1.675,-3.024 1.108,-0.587 2.458,-0.466 3.443,0.31 l 5.135,4.041 c 0.676,0.533 1.107,1.318 1.192,2.175 3.858,38.756 22.223,73.268 49.576,98.027 z m 2.367,-243.101 c 27.703,-21.412 62.439,-34.159 100.129,-34.159 90.478,0 163.935,73.457 163.935,163.936 0,23.815 -5.09,46.451 -14.239,66.879 -0.399,0.891 -1.186,1.548 -2.134,1.781 -0.947,0.233 -1.949,0.017 -2.716,-0.587 l -3.87,-3.046 c -1.134,-0.893 -1.521,-2.439 -0.942,-3.761 8.228,-18.76 12.794,-39.484 12.794,-61.266 0,-84.349 -68.48,-152.829 -152.828,-152.829 -34.712,0 -66.736,11.597 -92.405,31.125 -1.149,0.874 -2.743,0.861 -3.877,-0.032 l -3.869,-3.046 c -0.767,-0.603 -1.213,-1.527 -1.209,-2.502 0.005,-0.976 0.459,-1.896 1.231,-2.493 z m 57.354,189.753 c -1.924,2.291 -5.346,2.589 -7.637,0.665 -2.29,-1.924 -2.588,-5.346 -0.664,-7.637 l 94.261,-112.235 c 1.924,-2.291 5.346,-2.589 7.636,-0.665 2.291,1.924 2.589,5.346 0.665,7.637 z m 98.664,-3.55 -8.008,8.13 v 18.256 c 0,1.749 -1.419,3.168 -3.168,3.168 h -4.404 c -1.749,0 -3.167,-1.419 -3.167,-3.168 v -58.134 c 0,-1.749 1.418,-3.167 3.167,-3.167 h 4.404 c 1.749,0 3.168,1.418 3.168,3.167 v 24.824 l 26.454,-27.039 c 0.595,-0.609 1.412,-0.952 2.264,-0.952 h 5.813 c 1.275,0 2.425,0.764 2.919,1.938 0.495,1.175 0.237,2.532 -0.654,3.443 l -21.176,21.663 22.144,32.473 c 0.662,0.97 0.733,2.226 0.184,3.264 -0.549,1.038 -1.626,1.688 -2.8,1.688 h -5.373 c -1.049,0 -2.03,-0.52 -2.62,-1.387 z M 455.201,203.898 v 58.134 c 0,1.749 -1.419,3.167 -3.168,3.167 h -4.404 c -1.749,0 -3.167,-1.418 -3.167,-3.167 v -24.314 h -29.603 v 24.314 c 0,1.749 -1.418,3.167 -3.167,3.167 h -4.404 c -1.75,0 -3.168,-1.418 -3.168,-3.167 v -58.134 c 0,-1.749 1.418,-3.168 3.168,-3.168 h 4.404 c 1.749,0 3.167,1.419 3.167,3.168 v 23.345 h 29.603 v -23.345 c 0,-1.749 1.418,-3.168 3.167,-3.168 h 4.404 c 1.749,0 3.168,1.419 3.168,3.168 z" id="path1"></path>

                </g>

                <g transform="matrix(7.34014,0,0,7.34014,-266.99,-447.883)" id="g4">
                    <g transform="translate(-6.82328,-3.42548)" id="g2">
                        <path d="m 74.748,130.687 v 7.92 c 0,0.038 -0.03,0.068 -0.068,0.068 h -0.6 c -0.037,0 -0.068,-0.03 -0.068,-0.068 0,0 0,-3.676 0,-3.676 h -4.76 v 3.676 c 0,0.038 -0.03,0.068 -0.068,0.068 h -0.6 c -0.037,0 -0.068,-0.03 -0.068,-0.068 v -7.92 c 0,-0.038 0.031,-0.068 0.068,-0.068 h 0.6 c 0.038,0 0.068,0.03 0.068,0.068 0,0 0,3.544 0,3.544 h 4.76 v -3.544 c 0,-0.038 0.031,-0.068 0.068,-0.068 h 0.6 c 0.038,0 0.068,0.03 0.068,0.068 z m 6.612,4.854 v 3.066 c 0,0.038 -0.03,0.068 -0.068,0.068 h -0.6 c -0.037,0 -0.068,-0.03 -0.068,-0.068 v -3.066 l -2.799,-4.82 c -0.012,-0.021 -0.012,-0.047 0,-0.068 0.012,-0.021 0.035,-0.034 0.059,-0.034 h 0.708 c 0.025,0 0.047,0.013 0.059,0.034 0,0 2.341,4.108 2.341,4.108 l 2.341,-4.108 c 0.012,-0.021 0.035,-0.034 0.059,-0.034 H 84.1 c 0.024,0 0.047,0.013 0.059,0.034 0.012,0.021 0.012,0.047 0,0.068 z m 8.44,-4.922 c 1.285,0 2.274,0.342 2.97,1.021 0.695,0.68 1.046,1.661 1.046,2.947 0,1.317 -0.35,2.327 -1.045,3.03 -0.696,0.704 -1.685,1.058 -2.971,1.058 h -2.496 c -0.037,0 -0.068,-0.03 -0.068,-0.068 v -7.92 c 0,-0.038 0.031,-0.068 0.068,-0.068 z m 0.048,7.368 c 1.034,0 1.828,-0.289 2.381,-0.873 0.553,-0.585 0.827,-1.428 0.827,-2.527 0,-1.051 -0.274,-1.862 -0.827,-2.43 -0.552,-0.569 -1.347,-0.85 -2.381,-0.85 0,0 -1.876,0 -1.876,0 v 6.68 z m 10.643,-2.744 c -0.043,0 -2.271,0 -2.271,0 v 3.364 c 0,0.038 -0.03,0.068 -0.068,0.068 h -0.6 c -0.037,0 -0.068,-0.03 -0.068,-0.068 v -7.92 c 0,-0.038 0.031,-0.068 0.068,-0.068 h 2.94 c 0.811,0 1.455,0.207 1.934,0.616 0.483,0.413 0.726,0.978 0.726,1.696 0,0.594 -0.174,1.087 -0.521,1.479 -0.326,0.369 -0.765,0.616 -1.319,0.739 l 2.249,3.421 c 0.014,0.021 0.015,0.047 0.003,0.069 -0.012,0.022 -0.035,0.036 -0.06,0.036 h -0.708 c -0.023,0 -0.044,-0.011 -0.057,-0.03 z m 0.055,-0.041 c -0.008,0.021 -0.016,0.038 -0.018,0.041 l 0.02,-0.037 z m -2.326,-0.659 h 2.26 c 0.621,0 1.096,-0.137 1.426,-0.416 0.326,-0.276 0.486,-0.675 0.486,-1.196 0,-0.521 -0.161,-0.922 -0.486,-1.202 -0.33,-0.283 -0.806,-0.422 -1.426,-0.422 h -2.26 z" id="path2"></path>

                    </g>

                    <g transform="translate(5.57469,-3.42548)" id="g3">
                        <path d="m 119.754,134.442 -1.506,1.529 v 2.636 c 0,0.038 -0.03,0.068 -0.068,0.068 h -0.6 c -0.037,0 -0.068,-0.03 -0.068,-0.068 v -7.92 c 0,-0.038 0.031,-0.068 0.068,-0.068 h 0.6 c 0.038,0 0.068,0.03 0.068,0.068 v 4.273 l 4.227,-4.321 c 0.013,-0.013 0.031,-0.02 0.049,-0.02 h 0.792 c 0.028,0 0.052,0.016 0.063,0.042 0.011,0.025 0.005,0.054 -0.014,0.074 l -3.093,3.164 3.184,4.67 c 0.015,0.021 0.016,0.048 0.004,0.07 -0.011,0.022 -0.035,0.036 -0.06,0.036 h -0.732 c -0.022,0 -0.044,-0.011 -0.056,-0.03 z m 9.885,0.801 c -0.043,0 -2.271,0 -2.271,0 v 3.364 c 0,0.038 -0.03,0.068 -0.068,0.068 h -0.6 c -0.037,0 -0.068,-0.03 -0.068,-0.068 v -7.92 c 0,-0.038 0.031,-0.068 0.068,-0.068 h 2.94 c 0.811,0 1.455,0.207 1.934,0.616 0.483,0.413 0.726,0.978 0.726,1.696 0,0.594 -0.174,1.087 -0.521,1.479 -0.326,0.369 -0.765,0.616 -1.319,0.739 l 2.249,3.421 c 0.014,0.021 0.015,0.047 0.003,0.069 -0.012,0.022 -0.035,0.036 -0.06,0.036 h -0.708 c -0.023,0 -0.044,-0.011 -0.057,-0.03 z m -2.271,-0.7 h 2.26 c 0.621,0 1.096,-0.137 1.426,-0.416 0.326,-0.276 0.486,-0.675 0.486,-1.196 0,-0.521 -0.161,-0.922 -0.486,-1.202 -0.33,-0.283 -0.806,-0.422 -1.426,-0.422 h -2.26 z m 13.158,1.648 c 0,0 -3.7,0 -3.7,0 l -0.967,2.441 c -0.01,0.026 -0.035,0.043 -0.063,0.043 h -0.636 c -0.022,0 -0.044,-0.011 -0.056,-0.03 -0.013,-0.018 -0.016,-0.042 -0.007,-0.063 l 3.168,-7.92 c 0.01,-0.026 0.035,-0.043 0.063,-0.043 h 0.708 c 0.028,0 0.053,0.017 0.063,0.043 l 3.168,7.92 c 0.009,0.021 0.006,0.045 -0.006,0.063 -0.013,0.019 -0.034,0.03 -0.057,0.03 h -0.636 c -0.028,0 -0.053,-0.017 -0.063,-0.043 z m -1.865,-4.874 -0.002,0.006 0.008,0.005 c -0.002,-0.003 -0.004,-0.007 -0.006,-0.011 z m 0.043,0.004 -0.001,-0.003 c -0.002,0.004 -0.004,0.007 -0.006,0.011 l 0.003,-0.003 z m -0.023,0.144 -0.229,0.649 c 0,0.001 0,0.001 -0.001,0.002 l -1.343,3.387 h 3.148 l -1.343,-3.363 c -0.001,-10e-4 -0.001,-0.002 -0.001,-0.003 z m 8.973,2.977 -1.506,1.529 v 2.636 c 0,0.038 -0.03,0.068 -0.068,0.068 h -0.6 c -0.037,0 -0.068,-0.03 -0.068,-0.068 v -7.92 c 0,-0.038 0.031,-0.068 0.068,-0.068 h 0.6 c 0.038,0 0.068,0.03 0.068,0.068 v 4.273 l 4.227,-4.321 c 0.013,-0.013 0.031,-0.02 0.049,-0.02 h 0.792 c 0.028,0 0.052,0.016 0.063,0.042 0.011,0.025 0.005,0.054 -0.014,0.074 l -3.093,3.164 3.184,4.67 c 0.015,0.021 0.016,0.048 0.004,0.07 -0.011,0.022 -0.035,0.036 -0.06,0.036 h -0.732 c -0.022,0 -0.044,-0.011 -0.056,-0.03 z" id="path3"></path>

                    </g>

                </g>

            </g>
  </g>
</svg>